REM GENRE "Black Metal / Grindcore"
REM DATE 2000
REM DISCID 7B0B950A
REM COMMENT "ExactAudioCopy v1.0b3"
PERFORMER "Anaal Nathrakh"
TITLE "Total Fucking Necro"
FILE "Anaal Nathrakh - Total Fucking Necro.flac" WAVE
  TRACK 01 AUDIO
    TITLE "Anaal Nathrakh"
    PERFORMER "Anaal Nathrakh"
    INDEX 01 00:00:00
  TRACK 02 AUDIO
    TITLE "Necrodeath"
    PERFORMER "Anaal Nathrakh"
    INDEX 01 04:38:16
  TRACK 03 AUDIO
    TITLE "Ice Blasting Storm Winds"
    PERFORMER "Anaal Nathrakh"
    INDEX 01 09:02:44
  TRACK 04 AUDIO
    TITLE "Carnage (Mayhem cover)"
    PERFORMER "Anaal Nathrakh"
    INDEX 01 14:55:00
  TRACK 05 AUDIO
    TITLE "The Supreme Necrotic Audnance"
    PERFORMER "Anaal Nathrakh"
    INDEX 00 18:38:71
    INDEX 01 18:40:71
  TRACK 06 AUDIO
    TITLE "Satanarchrist"
    PERFORMER "Anaal Nathrakh"
    INDEX 00 23:39:01
    INDEX 01 23:41:01
  TRACK 07 AUDIO
    TITLE "L.E.T.H.A.L. : Diabolic"
    PERFORMER "Anaal Nathrakh"
    INDEX 00 28:51:14
    INDEX 01 28:53:14
  TRACK 08 AUDIO
    TITLE "De Mysteriis Dom Sathanas (Mayhem cover)"
    PERFORMER "Anaal Nathrakh"
    INDEX 00 34:03:03
    INDEX 01 34:05:03
  TRACK 09 AUDIO
    TITLE "The Technogoat"
    PERFORMER "Anaal Nathrakh"
    INDEX 00 40:35:26
    INDEX 01 40:37:26
  TRACK 10 AUDIO
    TITLE "Necrogeddon"
    PERFORMER "Anaal Nathrakh"
    INDEX 00 44:58:67
    INDEX 01 45:00:67
